<mxfile host="app.diagrams.net" modified="2023-12-02T16:01:16.099Z" agent="Mozilla/5.0 (Windows NT 10.0; Win64; x64) AppleWebKit/537.36 (KHTML, like Gecko) Chrome/119.0.0.0 Safari/537.36 Edg/119.0.0.0" etag="5r4kzP-wXmLhF8Ar4M99" version="22.1.5" type="device">
  <diagram name="Seite-1" id="ugEMbUzaSuyB4b7Ot4GS">
    <mxGraphModel dx="815" dy="429" grid="1" gridSize="10" guides="1" tooltips="1" connect="1" arrows="1" fold="1" page="1" pageScale="1" pageWidth="827" pageHeight="1169" math="0" shadow="0">
      <root>
        <mxCell id="0" />
        <mxCell id="1" parent="0" />
        <mxCell id="B3OLBgT8xh9u9xfzZ3Es-5" style="edgeStyle=orthogonalEdgeStyle;rounded=0;orthogonalLoop=1;jettySize=auto;html=1;exitX=1;exitY=0.25;exitDx=0;exitDy=0;entryX=0;entryY=0.25;entryDx=0;entryDy=0;" edge="1" parent="1" source="B3OLBgT8xh9u9xfzZ3Es-2" target="B3OLBgT8xh9u9xfzZ3Es-3">
          <mxGeometry relative="1" as="geometry" />
        </mxCell>
        <mxCell id="B3OLBgT8xh9u9xfzZ3Es-2" value="CrInGE Entwicklungsteam" style="rounded=1;whiteSpace=wrap;html=1;" vertex="1" parent="1">
          <mxGeometry x="280" y="240" width="100" height="40" as="geometry" />
        </mxCell>
        <mxCell id="B3OLBgT8xh9u9xfzZ3Es-6" style="edgeStyle=orthogonalEdgeStyle;rounded=0;orthogonalLoop=1;jettySize=auto;html=1;exitX=1;exitY=0.25;exitDx=0;exitDy=0;entryX=0;entryY=0.25;entryDx=0;entryDy=0;" edge="1" parent="1" source="B3OLBgT8xh9u9xfzZ3Es-3" target="B3OLBgT8xh9u9xfzZ3Es-4">
          <mxGeometry relative="1" as="geometry" />
        </mxCell>
        <mxCell id="B3OLBgT8xh9u9xfzZ3Es-8" style="edgeStyle=orthogonalEdgeStyle;rounded=0;orthogonalLoop=1;jettySize=auto;html=1;exitX=0;exitY=0.75;exitDx=0;exitDy=0;entryX=1;entryY=0.75;entryDx=0;entryDy=0;" edge="1" parent="1" source="B3OLBgT8xh9u9xfzZ3Es-3" target="B3OLBgT8xh9u9xfzZ3Es-2">
          <mxGeometry relative="1" as="geometry" />
        </mxCell>
        <mxCell id="B3OLBgT8xh9u9xfzZ3Es-3" value="Videospiel-entwickler" style="rounded=1;whiteSpace=wrap;html=1;" vertex="1" parent="1">
          <mxGeometry x="480" y="240" width="100" height="40" as="geometry" />
        </mxCell>
        <mxCell id="B3OLBgT8xh9u9xfzZ3Es-11" style="edgeStyle=orthogonalEdgeStyle;rounded=0;orthogonalLoop=1;jettySize=auto;html=1;exitX=0;exitY=0.75;exitDx=0;exitDy=0;entryX=1;entryY=0.75;entryDx=0;entryDy=0;" edge="1" parent="1" source="B3OLBgT8xh9u9xfzZ3Es-4" target="B3OLBgT8xh9u9xfzZ3Es-3">
          <mxGeometry relative="1" as="geometry" />
        </mxCell>
        <mxCell id="B3OLBgT8xh9u9xfzZ3Es-4" value="Videospieler" style="rounded=1;whiteSpace=wrap;html=1;" vertex="1" parent="1">
          <mxGeometry x="680" y="240" width="100" height="40" as="geometry" />
        </mxCell>
        <mxCell id="B3OLBgT8xh9u9xfzZ3Es-7" value="Bereitstellung Editor / Engine" style="text;html=1;strokeColor=none;fillColor=none;align=center;verticalAlign=middle;whiteSpace=wrap;rounded=0;" vertex="1" parent="1">
          <mxGeometry x="380" y="220" width="100" height="30" as="geometry" />
        </mxCell>
        <mxCell id="B3OLBgT8xh9u9xfzZ3Es-9" value="Feedback und Bugreports" style="text;html=1;strokeColor=none;fillColor=none;align=center;verticalAlign=middle;whiteSpace=wrap;rounded=0;" vertex="1" parent="1">
          <mxGeometry x="380" y="270" width="100" height="30" as="geometry" />
        </mxCell>
        <mxCell id="B3OLBgT8xh9u9xfzZ3Es-10" value="Bereitstellung Videospiele" style="text;html=1;strokeColor=none;fillColor=none;align=center;verticalAlign=middle;whiteSpace=wrap;rounded=0;" vertex="1" parent="1">
          <mxGeometry x="580" y="220" width="100" height="30" as="geometry" />
        </mxCell>
        <mxCell id="B3OLBgT8xh9u9xfzZ3Es-12" value="Feedback und Bugreports" style="text;html=1;strokeColor=none;fillColor=none;align=center;verticalAlign=middle;whiteSpace=wrap;rounded=0;" vertex="1" parent="1">
          <mxGeometry x="580" y="270" width="100" height="30" as="geometry" />
        </mxCell>
      </root>
    </mxGraphModel>
  </diagram>
</mxfile>
